<svg xmlns="http://www.w3.org/2000/svg" version="1.1" xmlns:xlink="http://www.w3.org/1999/xlink" width="1500" height="1500" viewBox="0 0 1500 1500"><rect width="1500" height="1500" x="0" y="0" id="background" stroke="transparent" fill="#ffffff"></rect><svg xml:space="preserve" width="1000" height="1000" data-version="2" data-id="lg_eH9ViLEddN1YCCmW7U" viewBox="0 0 352 442" x="250" y="250"><rect width="100%" height="100%" fill="transparent"></rect><g transform="translate(176 221)"><filter id="a" width="145.8%" height="144.62%" x="-22.9%" y="-22.31%"><feGaussianBlur in="SourceAlpha" stdDeviation="5"></feGaussianBlur><feOffset result="oBlur"></feOffset><feFlood flood-color="#F75CFF" flood-opacity="1"></feFlood><feComposite in2="oBlur" operator="in"></feComposite><feMerge><feMergeNode></feMergeNode><feMergeNode in="SourceGraphic"></feMergeNode></feMerge></filter><g filter="url(#a)"><path fill="#1e1e1e" d="M167.605 215.34q-.25 0-7.62-1.09t-18.37-5.8q-10.99-4.71-23.68-14.02-12.69-9.3-23.57-25.74-10.88-16.43-18.13-41.21-7.25-24.77-7.25-60.06 0-13.29 1.45-31.78 1.45-18.49 3.99-39.52 2.54-21.03 5.56-43.51 3.02-22.48 6.28-43.75 3.27-21.27 6.29-40.36t5.19-33.35q-2.9 11.6-6.4 25.25l-7.37 28.77q-3.87 15.1-7.86 31.05-3.99 15.96-8.09 31.91-4.11 16.43-9.19 34.2-5.07 17.76-11.36 35.05-6.28 17.28-13.78 32.87-7.49 15.59-16.67 27.43-9.19 11.84-19.82 18.85-10.64 7.01-23.21 7.01-7 0-13.29-2.66-6.28-2.66-11-9.06-4.71-6.41-7.49-17.16-2.78-10.76-2.78-27.19 0-9.67.85-23.57.84-13.9 2.17-30.45 1.33-16.56 3.15-35.17 1.81-18.61 3.74-37.58 1.94-18.98 3.87-37.59 1.93-18.61 3.62-35.53-6.28 25.62-14.98 63.81T-77.485.95q-8.94 39.88-18.73 70.7-9.79 30.82-19.33 53.9-9.55 23.08-18.25 38.91-8.7 15.83-15.35 25.62-6.65 9.79-10.76 14.26-4.11 4.47-4.11 4.71l-8.45-4.59q0-.24 4.22-7.61 4.23-7.37 11-20.67 6.77-13.29 15.47-32.02 8.7-18.73 17.89-41.45 9.18-22.72 18.37-49.07 9.18-26.34 16.67-55.11 10.88-40.6 19.46-75.16 8.58-34.57 14.62-59.82 6.05-25.26 9.31-39.52 3.26-14.26 3.26-14.5l9.43.96q0 .49-.12 11.36-.12 10.88-.25 28.28-.12 17.4-.24 39.28-.12 21.87-.24 44.11-.12 22.23-.24 42.66-.12 20.42-.12 35.16 0 16.92 1.33 30.82 1.33 13.9 4.35 23.69 3.02 9.79 7.61 15.1 4.59 5.32 11.12 5.32 5.32 0 12.69-7.13 7.37-7.13 16.19-23.2 8.83-16.07 18.61-42.18 9.79-26.1 20.19-64.29 3.62-13.05 8.09-29 4.47-15.96 9.79-36.14 5.32-20.18 11.48-45.08 6.17-24.89 13.18-55.59l9.42 1.45q-4.83 58.01-9.06 115.42-4.23 57.4-4.23 115.41 0 43.74 4.83 76.13 4.84 32.39 14.26 55.23 9.43 22.84 23.33 37.22 13.89 14.38 32.26 21.88Z"></path><rect width="343.93" height="431.68" x="-171.97" y="-215.84" fill="none" rx="0" ry="0"></rect></g></g></svg></svg>